<?xml version="1.0" encoding="UTF-8"?>
<svg version="1.1" xmlns="http://www.w3.org/2000/svg" width="512" height="512">
<path d="M0 0 C0.89125643 -0.00623996 1.78251286 -0.01247993 2.70077705 -0.01890898 C5.6756275 -0.03481423 8.64965576 -0.0222443 11.62451172 -0.00964355 C13.76194739 -0.01506576 15.89937933 -0.02218897 18.0368042 -0.03088379 C23.83428879 -0.0491082 29.63148843 -0.04205309 35.42897797 -0.02936745 C41.49823267 -0.01923531 47.56746309 -0.02863373 53.63671875 -0.03491211 C63.82865781 -0.04218787 74.0204809 -0.03260261 84.21240234 -0.0135498 C95.99302781 0.0082187 107.77337637 0.00116729 119.55399513 -0.02085543 C129.67138348 -0.03901138 139.7886885 -0.04156676 149.90608788 -0.03110075 C155.94754958 -0.02486694 161.98888115 -0.02402724 168.03033447 -0.0372467 C173.71034956 -0.0488073 179.39000786 -0.04077523 185.06998444 -0.01766968 C187.15369321 -0.01238377 189.23743205 -0.01389432 191.32112885 -0.02272034 C194.16728977 -0.03366383 197.01231003 -0.01992635 199.85839844 0 C200.68146044 -0.00892289 201.50452244 -0.01784577 202.35252571 -0.02703905 C207.99164774 0.04945194 211.26386489 1.31250026 215.92919922 4.50793457 C219.69717851 8.66309971 220.11968175 13.35327737 220.02685547 18.78918457 C220.01275635 19.8623291 219.99865723 20.93547363 219.98413086 22.0411377 C219.96600342 22.85518066 219.94787598 23.66922363 219.92919922 24.50793457 C220.82638672 24.4869873 221.72357422 24.46604004 222.64794922 24.44445801 C226.01019781 24.37585841 229.37169157 24.32593163 232.734375 24.28820801 C234.18338839 24.26822162 235.63232247 24.2410226 237.08105469 24.20617676 C246.48896449 23.98572953 253.70438712 23.92939714 261.17138672 30.47277832 C261.71021484 31.12375488 262.24904297 31.77473145 262.80419922 32.44543457 C263.35849609 33.09383301 263.91279297 33.74223145 264.48388672 34.41027832 C267.36879957 38.59730049 268.18142879 42.27410547 268.21972656 47.3170166 C268.23248627 48.4623587 268.24524597 49.60770081 268.25839233 50.78775024 C268.2617308 52.63310867 268.2617308 52.63310867 268.26513672 54.51574707 C268.27179352 55.79215057 268.27845032 57.06855408 268.28530884 58.38363647 C268.29543139 61.0853672 268.30099186 63.78669559 268.29980469 66.48840332 C268.29960243 69.92115217 268.32681326 73.35306439 268.36134911 76.78561592 C268.38918707 80.09150233 268.38777368 83.3972454 268.39013672 86.70324707 C268.40450775 87.92134064 268.41887878 89.1394342 268.4336853 90.3944397 C268.37152631 102.15551028 265.39704203 112.05466636 256.92919922 120.50793457 C251.06756542 125.59895855 245.37473698 128.98462407 238.14404297 131.74230957 C236.29530227 132.48863271 234.447008 133.23606247 232.59912109 133.98449707 C229.73202356 135.12750969 226.86180108 136.25982699 223.98266602 137.37219238 C208.19320511 143.51147613 208.19320511 143.51147613 197.92919922 156.50793457 C178.32425477 179.77165558 148.82494099 183.39628226 120.32373047 185.97277832 C86.39572964 188.66449137 40.22780181 188.61424754 12.24560547 166.37512207 C9.7153467 164.16451547 7.31075149 161.87737725 4.92919922 159.50793457 C4.23052734 158.84406738 3.53185547 158.1802002 2.81201172 157.49621582 C-1.48096953 153.11136143 -4.51003926 148.35453927 -7.32080078 142.94543457 C-7.79670654 142.0548938 -7.79670654 142.0548938 -8.28222656 141.1463623 C-14.30645088 128.87790127 -15.70631651 115.30826424 -16.30126953 101.86340332 C-16.3814625 100.31745835 -16.46306394 98.77158589 -16.54597473 97.2257843 C-16.75833029 93.1978997 -16.95204366 89.16934155 -17.14141846 85.14031982 C-17.33506356 81.08974968 -17.54641349 77.04010925 -17.75634766 72.99035645 C-18.10986022 66.12908122 -18.44979567 59.26723842 -18.78217602 52.40491009 C-19.09417834 45.98204471 -19.42964673 39.5605623 -19.78019714 33.13969421 C-20.89656962 12.43775433 -20.89656962 12.43775433 -17.62939453 6.12121582 C-12.42251107 0.73163469 -7.11986845 -0.07718711 0 0 Z M-3.07080078 16.50793457 C-2.34952421 38.45788785 -2.34952421 38.45788785 -1.38720703 60.39465332 C-1.32677719 61.59830032 -1.26634735 62.80194733 -1.2040863 64.04206848 C-1.07849185 66.5238379 -0.95164605 69.00554435 -0.82348633 71.48718262 C-0.63138595 75.23277013 -0.44770494 78.97871607 -0.26416016 82.72473145 C0.26025044 93.13599788 0.79475383 103.53574096 1.91748047 113.90246582 C1.99212021 114.60215988 2.06675995 115.30185394 2.1436615 116.02275085 C3.76553563 129.70038899 10.87880647 142.18532888 20.92919922 151.50793457 C30.72742209 158.84210731 40.7326274 162.86292796 52.67919922 165.13293457 C53.77756104 165.34458252 54.87592285 165.55623047 56.00756836 165.77429199 C70.94211346 168.55097994 85.62144642 169.65932461 100.80419922 169.75793457 C101.9043335 169.76736084 103.00446777 169.77678711 104.13793945 169.78649902 C113.94619383 169.91902198 113.94619383 169.91902198 122.30029297 165.39855957 C148.06151275 132.47873996 155.77467183 90.1552247 159.11669922 49.44543457 C159.20072998 48.45430664 159.28476074 47.46317871 159.37133789 46.4420166 C160.11914771 36.4027709 159.92919922 26.66798041 159.92919922 16.50793457 C106.13919922 16.50793457 52.34919922 16.50793457 -3.07080078 16.50793457 Z M218.92919922 40.50793457 C218.08133931 45.05685065 217.67486674 49.55145415 217.44848633 54.16564941 C217.40932602 54.90779694 217.37016571 55.64994446 217.32981873 56.4145813 C217.20215528 58.84918871 217.07931676 61.28401361 216.95654297 63.71887207 C216.86858962 65.41425094 216.78033346 67.10961412 216.69178772 68.80496216 C216.46026555 73.2533678 216.23284342 77.70197384 216.00628662 82.15063477 C215.77409171 86.69564464 215.53800304 91.24045207 215.30224609 95.78527832 C214.84076179 104.69263704 214.38361049 113.60021241 213.92919922 122.50793457 C234.15829975 116.54065445 234.15829975 116.54065445 248.95654297 102.72668457 C252.14497556 96.02656815 252.09773694 88.97624357 252.13232422 81.72668457 C252.14087433 80.32911926 252.14087433 80.32911926 252.14959717 78.90332031 C252.15901134 76.93999353 252.16556684 74.97665121 252.16943359 73.01330566 C252.17916734 70.01774624 252.21023597 67.02286535 252.24169922 64.02746582 C252.24822753 62.11470945 252.25347868 60.20194821 252.25732422 58.28918457 C252.26967102 57.3984021 252.28201782 56.50761963 252.29473877 55.58984375 C252.2766999 50.5343611 251.96641336 46.76831016 248.92919922 42.50793457 C245.31771237 40.3820968 242.10519742 40.27023202 237.97216797 40.31262207 C236.86035156 40.31906738 235.74853516 40.3255127 234.60302734 40.33215332 C233.45253906 40.34891113 232.30205078 40.36566895 231.11669922 40.38293457 C229.36196289 40.39646973 229.36196289 40.39646973 227.57177734 40.41027832 C224.69070869 40.43379725 221.81005933 40.46666605 218.92919922 40.50793457 Z " fill="#029AE4" transform="translate(156.07080078125,215.4920654296875)"/>
<path d="M0 0 C3.27522945 2.15475621 3.90229594 3.6641423 5 7.4375 C5 11.9281309 4.11178546 12.8343096 1 16 C-1.4636254 17.53807039 -4.04757703 18.73382995 -6.6875 19.9375 C-16.53583797 24.6670093 -26.86508383 29.73016766 -32 40 C-32.59406501 47.12878006 -31.2551932 50.08446761 -26.6328125 55.64453125 C-21.37672646 61.43668576 -14.79146932 65.27471385 -8 69 C-7.41589355 69.32081543 -6.83178711 69.64163086 -6.22998047 69.97216797 C65.01332901 108.10157171 163.30439999 106.9132002 238.95458984 84.109375 C273.28388998 73.52918618 273.28388998 73.52918618 299.16015625 50.0390625 C300.5268233 46.72092203 300.52858814 43.49003709 300 40 C297.60112902 35.10230508 293.98352354 32.06977553 289.8046875 28.7109375 C287.87603434 26.88247412 286.93092119 25.4792409 286 23 C286.07401236 18.85530765 286.40408868 16.72231675 289.0625 13.5 C292.13973421 11.92864636 294.25010267 11.37193541 297.68359375 12.00390625 C305.52091415 15.37408618 312.48839686 23.27751345 316 31 C319.02205768 38.73259598 319.63684274 48.01324387 316.4375 55.8125 C302.84655991 81.3013911 271.68701106 93.0014784 245.65234375 101.0078125 C239.47250177 102.82422714 233.25181573 104.45150612 227 106 C226.0601123 106.23557617 225.12022461 106.47115234 224.15185547 106.71386719 C199.99850053 112.65996089 174.72140739 116.05851472 149.84375 116.23828125 C148.71495926 116.2480751 147.58616852 116.25786896 146.423172 116.26795959 C110.30271499 116.51657327 76.20440752 114.55794909 41 106 C39.92218262 105.73848145 38.84436523 105.47696289 37.73388672 105.20751953 C7.29939511 97.63944814 -27.61033638 86.35881724 -46.51171875 59.60546875 C-50.79560334 52.10585977 -50.82537138 44.43810533 -50 36 C-46.35537034 23.10225717 -35.05102458 14.42159382 -23.90869141 8.05371094 C-8.04259032 -0.70531852 -8.04259032 -0.70531852 0 0 Z " fill="#019AE4" transform="translate(122,340)"/>
<path d="M0 0 C14.19 0 28.38 0 43 0 C43 18.41822496 43 18.41822496 42.6328125 26.4296875 C42.59393417 27.33655304 42.55505585 28.24341858 42.51499939 29.17776489 C42.38922121 32.07704868 42.25778348 34.97602913 42.125 37.875 C42.07987274 38.87402344 42.03474548 39.87304688 41.98825073 40.90234375 C41.7127258 46.98556616 41.42775162 53.06828984 41.13604736 59.15075684 C41.00762466 61.84031646 40.88214792 64.5299979 40.75732422 67.21972656 C40.57537711 71.1055488 40.3802334 74.99047897 40.17352295 78.87506104 C40.10098873 80.26333974 40.03202588 81.65181089 39.96710205 83.04046631 C39.03178463 102.77975178 35.21630601 120.24981695 20.54296875 134.36328125 C3.9716329 148.22057155 -19.78018304 152.9964088 -41 152 C-39.7934375 150.453125 -39.7934375 150.453125 -38.5625 148.875 C-6.32555071 105.56371049 -2.6119788 52.23957599 0 0 Z " fill="#B2E4FB" transform="translate(316,232)"/>
<path d="M0 0 C3.11871404 2.23240099 3.90714388 3.52737903 4.65234375 7.3203125 C4.74644531 8.57585937 4.84054688 9.83140625 4.9375 11.125 C6.17295997 22.69667898 11.26590451 29.81098406 18.63427734 38.47265625 C27.25169789 48.73083367 28.81744309 58.44061659 28.21337891 71.59082031 C27.26933491 82.24966027 21.23449911 91.59709473 15.890625 100.6015625 C13.14097478 105.54411557 12.54981405 109.32765702 13 115 C14.4566424 119.9612375 16.26101095 124.65398424 18.75 129.1875 C20.5159806 133.16095635 20.4899628 135.66032948 20 140 C18.5 142.5 18.5 142.5 16 144 C13.22011721 144.54686219 10.74791413 144.72991469 8 144 C-0.60854473 136.94328022 -3.98284525 124.09956559 -5.31640625 113.48046875 C-5.92144422 101.39922665 -0.34267336 91.1906004 5.55810547 81.09179688 C5.98623535 80.35896484 6.41436523 79.62613281 6.85546875 78.87109375 C7.24371826 78.22068115 7.63196777 77.57026855 8.03198242 76.90014648 C10.97318265 71.12678926 10.7569802 64.28590422 10 58 C8.54626464 54.4988282 6.45315334 51.86868747 4 49 C-6.64834916 36.35275021 -13.21394411 25.02995124 -13 8 C-12.35117284 5.16020577 -11.54553607 3.51865137 -10 1 C-6.87057535 -0.56471233 -3.38917777 -0.69701958 0 0 Z " fill="#019AE4" transform="translate(244,56)"/>
<path d="M0 0 C9.25480808 2.37933896 17.53456752 13.22875103 22.2890625 20.95703125 C27.72442937 30.85161746 30.47180107 40.65065381 27.58984375 51.9765625 C25.28861578 56.91355819 21.55623177 60.99018903 18.0078125 65.07421875 C12.85733439 72.18678376 13.35677586 81.18754978 14.203125 89.56640625 C15.40402538 92.73493571 16.94874878 95.05707081 19.203125 97.56640625 C21.39805243 100.13976944 22.13687241 101.12156741 22.640625 104.50390625 C22.07269335 108.47942778 21.30819727 109.99146827 18.203125 112.56640625 C15.00442918 113.44326881 12.4096865 113.40195696 9.203125 112.56640625 C2.74540434 108.53514524 -1.25335761 100.84871173 -3.34326172 93.6965332 C-5.94050906 81.50009453 -4.69920988 67.35932102 2.078125 56.87890625 C3.55910238 54.76851348 5.07198835 52.72691204 6.703125 50.73046875 C9.58631956 47.11009376 10.98273989 44.45682764 10.609375 39.59375 C8.61864699 29.65925156 0.40033508 22.41907439 -6.859375 15.94140625 C-9.35386187 13.48752731 -10.28987567 11.89934412 -10.484375 8.37890625 C-9.796875 4.56640625 -9.796875 4.56640625 -8.296875 2.06640625 C-5.4953612 0.38549797 -3.2787882 -0.18822673 0 0 Z " fill="#0199E4" transform="translate(195.796875,87.43359375)"/>
<path d="M0 0 C8.80120632 2.52134202 14.08735948 13.38057049 18.4375 20.7265625 C21.72541404 27.85037625 21.40460384 37.273218 19.3515625 44.66796875 C18.09988842 47.73795316 16.6852263 50.66681572 15.1953125 53.62890625 C14.13182629 55.87306866 13.08157102 58.1231846 12.03125 60.37353516 C10.98773097 62.60086647 9.92814332 64.81999938 8.8671875 67.0390625 C5.42799933 74.42367448 5.48035226 81.63863634 6.1953125 89.62890625 C7.3886822 92.80354611 8.93928764 95.11773572 11.1953125 97.62890625 C13.39023993 100.20226944 14.12905991 101.18406741 14.6328125 104.56640625 C14.06488085 108.54192778 13.30038477 110.05396827 10.1953125 112.62890625 C6.99661668 113.50576881 4.401874 113.46445696 1.1953125 112.62890625 C-5.25878957 108.59990416 -9.27404433 100.90684407 -11.34887695 93.75244141 C-14.9789071 76.84081729 -9.80978209 61.4836985 -1.609375 46.94140625 C1.58186588 41.08389053 3.40180533 36.30694987 2.1953125 29.62890625 C-0.11207289 24.41739788 -3.26163144 20.10853641 -7.1796875 16.00390625 C-9.43277135 13.49586818 -10.25500154 11.82906613 -10.4296875 8.44140625 C-9.8046875 4.62890625 -9.8046875 4.62890625 -8.3046875 2.12890625 C-5.51518814 0.45520663 -3.23818642 0.11143557 0 0 Z " fill="#019AE4" transform="translate(299.8046875,87.37109375)"/>
</svg>
